<svg width="16" height="17" viewBox="0 0 16 17" fill="none" xmlns="http://www.w3.org/2000/svg">
<g clip-path="url(#clip0_73_1543)">
<path d="M13.6569 3.2865C12.1459 1.77551 10.1368 0.943359 8 0.943359C5.86316 0.943359 3.85413 1.77551 2.34314 3.2865C0.832153 4.79749 0 6.80652 0 8.94336C0 11.0802 0.832153 13.0892 2.34314 14.6002C3.85413 16.1112 5.86316 16.9434 8 16.9434C10.1368 16.9434 12.1459 16.1112 13.6569 14.6002C15.1678 13.0892 16 11.0802 16 8.94336C16 6.80652 15.1678 4.79749 13.6569 3.2865ZM3.47205 14.3589C3.73621 12.0859 5.69043 10.3311 8 10.3311C9.21753 10.3311 10.3624 10.8054 11.2236 11.6665C11.9512 12.3942 12.41 13.3442 12.5281 14.3588C11.3013 15.3862 9.72168 16.0059 8 16.0059C6.27832 16.0059 4.69885 15.3864 3.47205 14.3589ZM8 9.36548C6.66028 9.36548 5.57019 8.27539 5.57019 6.93567C5.57019 5.59583 6.66028 4.50586 8 4.50586C9.33972 4.50586 10.4298 5.59583 10.4298 6.93567C10.4298 8.27539 9.33972 9.36548 8 9.36548ZM13.335 13.5663C13.0961 12.6031 12.5979 11.7151 11.8865 11.0037C11.3103 10.4275 10.6287 9.99524 9.88525 9.72437C10.7789 9.11829 11.3673 8.09436 11.3673 6.93567C11.3673 5.07898 9.85669 3.56836 8 3.56836C6.14331 3.56836 4.63269 5.07898 4.63269 6.93567C4.63269 8.09497 5.22156 9.11926 6.11597 9.72522C5.43201 9.97449 4.79907 10.3599 4.25452 10.8672C3.46594 11.6016 2.91833 12.538 2.66443 13.5656C1.58911 12.3259 0.9375 10.7094 0.9375 8.94336C0.9375 5.04907 4.10571 1.88086 8 1.88086C11.8943 1.88086 15.0625 5.04907 15.0625 8.94336C15.0625 10.7097 14.4106 12.3267 13.335 13.5663Z" fill="#7B5948"/>
</g>
<defs>
<clipPath id="clip0_73_1543">
<rect width="16" height="16" fill="white" transform="translate(0 0.943359)"/>
</clipPath>
</defs>
</svg>
