<svg width="22" height="22" viewBox="0 0 22 22" fill="none" xmlns="http://www.w3.org/2000/svg">
<g clip-path="url(#clip0_15_1849)">
<path d="M14.3945 17.6602H0.644531C0.288578 17.6602 0 17.9487 0 18.3047C0 19.3726 0.865691 20.2383 1.93359 20.2383H13.1055C14.1734 20.2383 15.0391 19.3726 15.0391 18.3047C15.0391 17.9487 14.7505 17.6602 14.3945 17.6602Z" fill="#171515"/>
<path d="M21.6833 2.86906C19.1849 1.39261 16.651 1.39261 14.1525 2.86906C13.8543 3.04527 13.7487 3.42572 13.9135 3.73045L15.87 7.34971H19.9659L21.9224 3.73045C22.0871 3.42572 21.9815 3.04527 21.6833 2.86906Z" fill="#171515"/>
<path d="M16.3065 8.63672H19.5292V10.5703H16.3065V8.63672Z" fill="#171515"/>
<path d="M16.3065 18.627C16.3065 19.5169 17.0279 20.2383 17.9178 20.2383C18.8078 20.2383 19.5292 19.5169 19.5292 18.627V11.8594H16.3065V18.627Z" fill="#171515"/>
<path d="M11.0136 6.64654C10.0803 5.71321 8.83945 5.19922 7.51953 5.19922C6.19962 5.19922 4.95872 5.71321 4.02544 6.64654C3.09212 7.57982 2.57812 8.82071 2.57812 10.1406C2.57812 11.4605 3.09212 12.7014 4.02544 13.6347C4.95872 14.568 6.19962 15.082 7.51953 15.082C8.83945 15.082 10.0803 14.568 11.0136 13.6347C11.9469 12.7014 12.4609 11.4605 12.4609 10.1406C12.4609 8.82071 11.9469 7.57982 11.0136 6.64654ZM5.08888 11.3928C4.92392 11.3928 4.75896 11.3299 4.63315 11.204C4.38144 10.9523 4.38144 10.5442 4.63315 10.2925L7.67147 7.2542C7.92314 7.00249 8.33125 7.00249 8.58296 7.2542C8.83468 7.50591 8.83468 7.91398 8.58296 8.1657L5.54464 11.204C5.41875 11.3299 5.25383 11.3928 5.08888 11.3928ZM10.406 9.98869L7.36764 13.027C7.24178 13.1529 7.07682 13.2158 6.91191 13.2158C6.747 13.2158 6.582 13.1529 6.45618 13.027C6.20447 12.7753 6.20447 12.3672 6.45618 12.1155L9.4945 9.07719C9.74617 8.82548 10.1543 8.82548 10.406 9.07719C10.6577 9.3289 10.6577 9.73698 10.406 9.98869Z" fill="#171515"/>
<path d="M7.51953 2.62109C3.37326 2.62109 0 5.99436 0 10.1406C0 12.7301 1.31575 15.018 3.31375 16.3711H7.51953C4.07855 16.3711 1.28906 13.5816 1.28906 10.1406C1.28906 6.69964 4.07855 3.91016 7.51953 3.91016C10.9605 3.91016 13.75 6.69964 13.75 10.1406C13.75 13.5816 10.9605 16.3711 7.51953 16.3711H11.7253C13.7233 15.018 15.0391 12.7301 15.0391 10.1406C15.0391 5.99436 11.6658 2.62109 7.51953 2.62109Z" fill="#171515"/>
</g>
<defs>
<clipPath id="clip0_15_1849">
<rect width="22" height="22" fill="white"/>
</clipPath>
</defs>
</svg>
