<svg width="22" height="23" viewBox="0 0 22 23" fill="none" xmlns="http://www.w3.org/2000/svg">
<g clip-path="url(#clip0_327_10)">
<path d="M17.9433 7.17651H14.8806V7.17385C14.8806 5.73985 14.0988 4.48517 12.939 3.81335V2.64331C12.939 2.28495 13.2305 1.99341 13.5889 1.99341V0.704346C12.5197 0.704346 11.6499 1.57416 11.6499 2.64331V3.34791C11.4385 3.31212 11.2214 3.29321 11 3.29321C10.7786 3.29321 10.5615 3.31212 10.3501 3.34791V2.64331C10.3501 1.57416 9.48028 0.704346 8.41113 0.704346V1.99341C8.76949 1.99341 9.06104 2.28495 9.06104 2.64331V3.81335C7.90127 4.48512 7.11936 5.73985 7.11936 7.17381V7.17647H4.05672C1.81986 7.17651 0 8.99633 0 11.2332C0 12.9052 0.959578 14.3413 2.50426 14.9811C4.12436 15.6693 5.9437 15.2117 7.11936 13.9076V17.4677C7.11936 18.4273 7.75345 19.3728 9.00402 20.2781C10.1181 21.0519 10.5747 21.2081 11 21.41C11.4495 21.1981 11.857 21.0629 12.996 20.2781C14.2465 19.3729 14.8806 18.4273 14.8806 17.4677V13.9076C16.0524 15.2204 17.8757 15.6595 19.4957 14.9811C21.0404 14.3413 22 12.9051 22 11.2332C22 8.99633 20.1801 7.17651 17.9433 7.17651ZM8.40843 7.17381C8.40843 5.74484 9.57099 4.58228 11 4.58228C12.429 4.58228 13.5915 5.74484 13.5915 7.17381V7.17647H8.40843V7.17381ZM8.40843 16.8231V15.5233H13.5915V16.8231H8.40843ZM8.40843 14.2342V12.9344H13.5915V14.2342H8.40843ZM9.38158 11.6453L11 10.027L12.6184 11.6454H9.38158V11.6453ZM6.01373 13.1902C5.0496 14.1544 3.82353 14.1323 2.99759 13.7902C2.17164 13.4481 1.28906 12.5967 1.28906 11.2332C1.28906 9.70712 2.53064 8.46553 4.05672 8.46553H10.7384L6.01373 13.1902ZM12.256 19.2222C11.7768 19.571 11.2894 19.8389 11 19.9868C10.7106 19.8388 10.2232 19.571 9.74402 19.2222C9.22204 18.8423 8.84245 18.4638 8.62422 18.1122H13.3758C13.1575 18.4638 12.778 18.8423 12.256 19.2222ZM19.0024 13.7902C18.1765 14.1323 16.9504 14.1543 15.9863 13.1902L11.2616 8.46558H17.9433C19.4694 8.46558 20.7109 9.70716 20.7109 11.2332C20.7109 12.5967 19.8284 13.4481 19.0024 13.7902Z" fill="#fff"/>
</g>
<defs>
<clipPath id="clip0_327_10">
<rect width="22" height="22" fill="white" transform="translate(0 0.0571289)"/>
</clipPath>
</defs>
</svg>
