<svg width="16" height="17" viewBox="0 0 16 17" fill="none" xmlns="http://www.w3.org/2000/svg">
<g clip-path="url(#clip0_73_1549)">
<path d="M13.825 16.4434H10.425C9.5 16.4434 8.75 15.6934 8.75 14.7684V10.1934C8.75 9.91836 8.975 9.69336 9.25 9.69336H13.825C14.75 9.69336 15.5 10.4434 15.5 11.3684V14.7684C15.5 15.6934 14.75 16.4434 13.825 16.4434ZM9.75 10.6934V14.7684C9.75 15.1434 10.05 15.4434 10.425 15.4434H13.825C14.2 15.4434 14.5 15.1434 14.5 14.7684V11.3684C14.5 10.9934 14.2 10.6934 13.825 10.6934H9.75Z" fill="#7B5948"/>
<path d="M5.575 16.4434H2.175C1.25 16.4434 0.5 15.6934 0.5 14.7684V11.3684C0.5 10.4434 1.25 9.69336 2.175 9.69336H6.75C7.025 9.69336 7.25 9.91836 7.25 10.1934V14.7684C7.25 15.6934 6.5 16.4434 5.575 16.4434ZM2.175 10.6934C1.8 10.6934 1.5 10.9934 1.5 11.3684V14.7684C1.5 15.1434 1.8 15.4434 2.175 15.4434H5.575C5.95 15.4434 6.25 15.1434 6.25 14.7684V10.6934H2.175Z" fill="#7B5948"/>
<path d="M13.825 8.19336H9.25C8.975 8.19336 8.75 7.96836 8.75 7.69336V3.11836C8.75 2.19336 9.5 1.44336 10.425 1.44336H13.825C14.75 1.44336 15.5 2.19336 15.5 3.11836V6.51836C15.5 7.44336 14.75 8.19336 13.825 8.19336ZM9.75 7.19336H13.825C14.2 7.19336 14.5 6.89336 14.5 6.51836V3.11836C14.5 2.74336 14.2 2.44336 13.825 2.44336H10.425C10.05 2.44336 9.75 2.74336 9.75 3.11836V7.19336Z" fill="#7B5948"/>
<path d="M6.75 8.19336H2.175C1.25 8.19336 0.5 7.44336 0.5 6.51836V3.11836C0.5 2.19336 1.25 1.44336 2.175 1.44336H5.575C6.5 1.44336 7.25 2.19336 7.25 3.11836V7.69336C7.25 7.96836 7.025 8.19336 6.75 8.19336ZM2.175 2.44336C1.8 2.44336 1.5 2.74336 1.5 3.11836V6.51836C1.5 6.89336 1.8 7.19336 2.175 7.19336H6.25V3.11836C6.25 2.74336 5.95 2.44336 5.575 2.44336H2.175Z" fill="#7B5948"/>
</g>
<defs>
<clipPath id="clip0_73_1549">
<rect width="16" height="16" fill="white" transform="translate(0 0.943359)"/>
</clipPath>
</defs>
</svg>
