<svg width="16" height="16" viewBox="0 0 16 16" fill="none" xmlns="http://www.w3.org/2000/svg">
<path d="M3.90984 3.74862H4.13874C4.48662 3.74862 4.76861 3.46653 4.76861 3.11875V1.38058V0.730423C4.76861 0.382643 4.48662 0.100586 4.13874 0.100586H3.90984C3.56199 0.100586 3.28 0.382643 3.28 0.730423V1.38062V3.11875C3.28 3.46653 3.56199 3.74862 3.90984 3.74862Z" fill="#7B5948"/>
<path d="M11.9888 3.733H12.2177C12.5655 3.733 12.8475 3.45094 12.8475 3.10313V1.2156V0.714765C12.8475 0.367018 12.5655 0.0849609 12.2177 0.0849609H11.9888C11.6409 0.0849609 11.3589 0.367018 11.3589 0.714765V1.2156V3.1031C11.3589 3.45094 11.6409 3.733 11.9888 3.733Z" fill="#7B5948"/>
<path d="M14.9761 1.38086H13.3595V3.26836C13.3595 3.898 12.8473 4.24528 12.2177 4.24528H11.9888C11.3592 4.24528 10.847 3.73303 10.847 3.10339V1.38086H5.28063V3.119C5.28063 3.74864 4.76842 4.26089 4.13878 4.26089H3.90987C3.28027 4.26089 2.76805 3.74864 2.76805 3.119V1.38086H1.02397C0.459362 1.38086 0 1.84022 0 2.40486V14.7782C0 15.3429 0.459362 15.8022 1.02397 15.8022H14.9761C15.5407 15.8022 16 15.3429 16 14.7782V2.40486C16.0001 1.84025 15.5407 1.38086 14.9761 1.38086ZM14.9761 14.7782H1.024L1.02397 5.43418H14.9763L14.9768 14.7782C14.9767 14.7782 14.9765 14.7782 14.9761 14.7782Z" fill="#7B5948"/>
<path d="M8.52863 8.56794H10.3672C10.4401 8.56794 10.4992 8.50885 10.4992 8.43596V6.84389C10.4992 6.771 10.4401 6.71191 10.3672 6.71191H8.52863C8.45575 6.71191 8.39666 6.771 8.39666 6.84389V8.43596C8.39666 8.50885 8.45575 8.56794 8.52863 8.56794Z" fill="#7B5948"/>
<path d="M11.5292 8.56794H13.3678C13.4407 8.56794 13.4998 8.50885 13.4998 8.43596V6.84389C13.4998 6.771 13.4407 6.71191 13.3678 6.71191H11.5292C11.4563 6.71191 11.3972 6.771 11.3972 6.84389V8.43596C11.3972 8.50885 11.4563 8.56794 11.5292 8.56794Z" fill="#7B5948"/>
<path d="M2.52763 11.1744H4.3662C4.43908 11.1744 4.49817 11.1153 4.49817 11.0424V9.45033C4.49817 9.37745 4.43908 9.31836 4.3662 9.31836H2.52763C2.45475 9.31836 2.39566 9.37745 2.39566 9.45033V11.0424C2.39566 11.1153 2.45475 11.1744 2.52763 11.1744Z" fill="#7B5948"/>
<path d="M5.52815 11.1744H7.36672C7.4396 11.1744 7.49869 11.1153 7.49869 11.0424V9.45033C7.49869 9.37745 7.4396 9.31836 7.36672 9.31836H5.52815C5.45527 9.31836 5.39618 9.37745 5.39618 9.45033V11.0424C5.39618 11.1153 5.45527 11.1744 5.52815 11.1744Z" fill="#7B5948"/>
<path d="M8.52866 11.1744H10.3672C10.4401 11.1744 10.4992 11.1153 10.4992 11.0424V9.45033C10.4992 9.37745 10.4401 9.31836 10.3672 9.31836H8.52866C8.45578 9.31836 8.39669 9.37745 8.39669 9.45033V11.0424C8.39669 11.1153 8.45578 11.1744 8.52866 11.1744Z" fill="#7B5948"/>
<path d="M11.5292 11.1744H13.3678C13.4407 11.1744 13.4998 11.1153 13.4998 11.0424V9.45033C13.4998 9.37745 13.4407 9.31836 13.3678 9.31836H11.5292C11.4563 9.31836 11.3972 9.37745 11.3972 9.45033V11.0424C11.3972 11.1153 11.4563 11.1744 11.5292 11.1744Z" fill="#7B5948"/>
<path d="M4.3662 11.9248H2.52766C2.45478 11.9248 2.39569 11.9839 2.39569 12.0568V13.6489C2.39569 13.7218 2.45478 13.7809 2.52766 13.7809H4.36623C4.43911 13.7809 4.4982 13.7218 4.4982 13.6489V12.0568C4.49817 11.9839 4.43908 11.9248 4.3662 11.9248Z" fill="#7B5948"/>
<path d="M7.36675 11.9248H5.52818C5.4553 11.9248 5.39621 11.9839 5.39621 12.0568V13.6489C5.39621 13.7218 5.4553 13.7809 5.52818 13.7809H7.36675C7.43963 13.7809 7.49872 13.7218 7.49872 13.6489V12.0568C7.49872 11.9839 7.43963 11.9248 7.36675 11.9248Z" fill="#7B5948"/>
<path d="M10.3673 11.9248H8.5287C8.45582 11.9248 8.39672 11.9839 8.39672 12.0568V13.6489C8.39672 13.7218 8.45582 13.7809 8.5287 13.7809H10.3673C10.4402 13.7809 10.4993 13.7218 10.4993 13.6489V12.0568C10.4993 11.9839 10.4402 11.9248 10.3673 11.9248Z" fill="#7B5948"/>
<path d="M13.3678 11.9248H11.5292C11.4563 11.9248 11.3972 11.9839 11.3972 12.0568V13.6489C11.3972 13.7218 11.4563 13.7809 11.5292 13.7809H13.3678C13.4407 13.7809 13.4998 13.7218 13.4998 13.6489V12.0568C13.4998 11.9839 13.4407 11.9248 13.3678 11.9248Z" fill="#7B5948"/>
</svg>
